<?xml version="1.0" encoding="UTF-8" standalone="no"?>
<!-- Created with Inkscape (http://www.inkscape.org/) -->

<svg
   xmlns:dc="http://purl.org/dc/elements/1.1/"
   xmlns:cc="http://creativecommons.org/ns#"
   xmlns:rdf="http://www.w3.org/1999/02/22-rdf-syntax-ns#"
   xmlns:svg="http://www.w3.org/2000/svg"
   xmlns="http://www.w3.org/2000/svg"
   xmlns:sodipodi="http://sodipodi.sourceforge.net/DTD/sodipodi-0.dtd"
   xmlns:inkscape="http://www.inkscape.org/namespaces/inkscape"
   width="64"
   height="64"
   viewBox="0 0 16.933333 16.933334"
   version="1.1"
   id="svg8"
   inkscape:version="0.92.3 (2405546, 2018-03-11)"
   sodipodi:docname="Enemy.svg">
  <defs
     id="defs2" />
  <sodipodi:namedview
     id="base"
     pagecolor="#ffffff"
     bordercolor="#666666"
     borderopacity="1.0"
     inkscape:pageopacity="0.0"
     inkscape:pageshadow="2"
     inkscape:zoom="11.2"
     inkscape:cx="31.972959"
     inkscape:cy="35.763882"
     inkscape:document-units="mm"
     inkscape:current-layer="layer1"
     showgrid="false"
     units="px"
     inkscape:window-width="1920"
     inkscape:window-height="1028"
     inkscape:window-x="0"
     inkscape:window-y="0"
     inkscape:window-maximized="1"
     showguides="true"
     inkscape:guide-bbox="true" />
  <metadata
     id="metadata5">
    <rdf:RDF>
      <cc:Work
         rdf:about="">
        <dc:format>image/svg+xml</dc:format>
        <dc:type
           rdf:resource="http://purl.org/dc/dcmitype/StillImage" />
        <dc:title />
      </cc:Work>
    </rdf:RDF>
  </metadata>
  <g
     inkscape:label="Layer 1"
     inkscape:groupmode="layer"
     id="layer1"
     transform="translate(0,-280.06665)">
    <path
       style="fill:#a5b7f3;fill-opacity:1;stroke:#a5b7f3;stroke-width:0.26458332px;stroke-linecap:butt;stroke-linejoin:miter;stroke-opacity:1"
       d="m 0.56794775,296.13136 c 2.87832545,-26.74076 16.46600725,-13.90602 15.93594525,0 l -2.222394,-3.65301 -2.233508,3.80077 -2.7757626,-3.75579 -2.6812686,3.7725 -2.9710763,-3.81224 z"
       id="path3019"
       inkscape:connector-curvature="0"
       sodipodi:nodetypes="cccccccc" />
    <path
       style="fill:#ffffff;fill-opacity:1;stroke:#ffffff;stroke-width:0.40552059;stroke-miterlimit:4;stroke-dasharray:none;stroke-opacity:1"
       d="m 7.8000858,285.49625 a 2.0457982,1.9384404 0 0 1 -2.0457979,1.93845 2.0457982,1.9384404 0 0 1 -2.045798,-1.93845 2.0457982,1.9384404 0 0 1 2.045798,-1.93843 2.0457982,1.9384404 0 0 1 2.0457979,1.93843 z"
       id="path4827"
       inkscape:connector-curvature="0" />
    <path
       inkscape:connector-curvature="0"
       id="path88"
       d="m 12.548412,285.49625 a 2.0457982,1.9384404 0 0 1 -2.045798,1.93845 2.0457982,1.9384404 0 0 1 -2.0457982,-1.93845 2.0457982,1.9384404 0 0 1 2.0457982,-1.93843 2.0457982,1.9384404 0 0 1 2.045798,1.93843 z"
       style="fill:#ffffff;fill-opacity:1;stroke:#ffffff;stroke-width:0.40552059;stroke-miterlimit:4;stroke-dasharray:none;stroke-opacity:1" />
    <circle
       style="fill:#584fff;fill-opacity:1;stroke:#564fff;stroke-width:0.55227989;stroke-miterlimit:4;stroke-dasharray:none;stroke-opacity:1"
       id="path6194"
       cx="4.5255356"
       cy="285.41202"
       r="0.50543475" />
    <circle
       r="0.50543475"
       cy="285.41202"
       cx="9.2700443"
       id="circle84"
       style="fill:#584fff;fill-opacity:1;stroke:#564fff;stroke-width:0.55227989;stroke-miterlimit:4;stroke-dasharray:none;stroke-opacity:1" />
  </g>
</svg>
